<mxfile host="app.diagrams.net" agent="Mozilla/5.0 (Windows NT 10.0; Win64; x64) AppleWebKit/537.36 (KHTML, like Gecko) Chrome/138.0.0.0 Safari/537.36" version="28.1.1">
  <diagram name="第 1 页" id="v9WSZQmkBKZKWTw9n09k">
    <mxGraphModel dx="1383" dy="829" grid="1" gridSize="10" guides="1" tooltips="1" connect="1" arrows="1" fold="1" page="1" pageScale="1" pageWidth="827" pageHeight="1169" math="0" shadow="0">
      <root>
        <mxCell id="0" />
        <mxCell id="1" parent="0" />
        <mxCell id="Rj85BnveKWgoiPIKLIqZ-70" value="状态机" style="rounded=1;whiteSpace=wrap;html=1;fillColor=none;labelPosition=left;verticalLabelPosition=top;align=right;verticalAlign=bottom;fontSize=20;" vertex="1" parent="1">
          <mxGeometry x="1240" y="145" width="870" height="885" as="geometry" />
        </mxCell>
        <mxCell id="Rj85BnveKWgoiPIKLIqZ-37" value="编排层" style="rounded=1;whiteSpace=wrap;html=1;fillColor=none;labelPosition=left;verticalLabelPosition=top;align=right;verticalAlign=bottom;" vertex="1" parent="1">
          <mxGeometry x="100" y="145" width="1050" height="479" as="geometry" />
        </mxCell>
        <mxCell id="Rj85BnveKWgoiPIKLIqZ-36" value="数据源层" style="rounded=1;whiteSpace=wrap;html=1;fillColor=none;labelPosition=left;verticalLabelPosition=top;align=right;verticalAlign=bottom;" vertex="1" parent="1">
          <mxGeometry x="140" y="765" width="1050" height="339" as="geometry" />
        </mxCell>
        <mxCell id="Rj85BnveKWgoiPIKLIqZ-1" value="智能体" style="shape=umlActor;verticalLabelPosition=bottom;verticalAlign=top;html=1;outlineConnect=0;" vertex="1" parent="1">
          <mxGeometry x="130" y="435" width="30" height="60" as="geometry" />
        </mxCell>
        <mxCell id="Rj85BnveKWgoiPIKLIqZ-2" value="原始文件" style="sketch=0;outlineConnect=0;fontColor=#232F3E;gradientColor=none;fillColor=#232F3D;strokeColor=none;dashed=0;verticalLabelPosition=bottom;verticalAlign=top;align=center;html=1;fontSize=12;fontStyle=0;aspect=fixed;pointerEvents=1;shape=mxgraph.aws4.document;" vertex="1" parent="1">
          <mxGeometry x="350" y="905" width="57" height="78" as="geometry" />
        </mxCell>
        <mxCell id="Rj85BnveKWgoiPIKLIqZ-3" value="内嵌图片" style="points=[];aspect=fixed;html=1;align=center;shadow=0;dashed=0;fillColor=#FF6A00;strokeColor=none;shape=mxgraph.alibaba_cloud.image_recognition;labelPosition=center;verticalLabelPosition=bottom;verticalAlign=top;" vertex="1" parent="1">
          <mxGeometry x="549.05" y="995" width="48.9" height="47.7" as="geometry" />
        </mxCell>
        <mxCell id="Rj85BnveKWgoiPIKLIqZ-4" value="&lt;h1 style=&quot;margin-top: 0px;&quot;&gt;文本内容&lt;/h1&gt;&lt;p&gt;Lorem ipsum dolor sit amet, consectetur adipisicing elit, sed do eiusmod tempor incididunt ut labore et dolore magna aliqua.&lt;/p&gt;" style="text;html=1;whiteSpace=wrap;overflow=hidden;rounded=0;" vertex="1" parent="1">
          <mxGeometry x="513.5" y="805" width="120" height="140" as="geometry" />
        </mxCell>
        <mxCell id="Rj85BnveKWgoiPIKLIqZ-5" value="" style="endArrow=classic;html=1;rounded=0;" edge="1" parent="1" source="Rj85BnveKWgoiPIKLIqZ-2">
          <mxGeometry width="50" height="50" relative="1" as="geometry">
            <mxPoint x="793.5" y="1015" as="sourcePoint" />
            <mxPoint x="503.5" y="1015" as="targetPoint" />
          </mxGeometry>
        </mxCell>
        <mxCell id="Rj85BnveKWgoiPIKLIqZ-6" value="" style="endArrow=classic;html=1;rounded=0;entryX=0;entryY=0.5;entryDx=0;entryDy=0;" edge="1" parent="1" source="Rj85BnveKWgoiPIKLIqZ-2" target="Rj85BnveKWgoiPIKLIqZ-4">
          <mxGeometry width="50" height="50" relative="1" as="geometry">
            <mxPoint x="663.5" y="985" as="sourcePoint" />
            <mxPoint x="713.5" y="935" as="targetPoint" />
          </mxGeometry>
        </mxCell>
        <mxCell id="Rj85BnveKWgoiPIKLIqZ-7" value="" style="endArrow=classic;html=1;rounded=0;exitX=1;exitY=0.5;exitDx=0;exitDy=0;" edge="1" parent="1" source="Rj85BnveKWgoiPIKLIqZ-4">
          <mxGeometry width="50" height="50" relative="1" as="geometry">
            <mxPoint x="743.5" y="915" as="sourcePoint" />
            <mxPoint x="743.5" y="875" as="targetPoint" />
          </mxGeometry>
        </mxCell>
        <mxCell id="Rj85BnveKWgoiPIKLIqZ-8" value="切块(Chunks)" style="sketch=0;outlineConnect=0;fontColor=#232F3E;gradientColor=none;fillColor=#232F3D;strokeColor=none;dashed=0;verticalLabelPosition=bottom;verticalAlign=top;align=center;html=1;fontSize=12;fontStyle=0;aspect=fixed;pointerEvents=1;shape=mxgraph.aws4.documents3;" vertex="1" parent="1">
          <mxGeometry x="773.5" y="846" width="42.38" height="58" as="geometry" />
        </mxCell>
        <mxCell id="Rj85BnveKWgoiPIKLIqZ-9" value="&lt;font style=&quot;font-size: 16px;&quot;&gt;[.........]&lt;/font&gt;&lt;div&gt;&lt;font style=&quot;font-size: 16px;&quot;&gt;&lt;br&gt;&lt;/font&gt;&lt;/div&gt;&lt;div&gt;&lt;font style=&quot;font-size: 16px;&quot;&gt;嵌入向量&lt;/font&gt;&lt;/div&gt;" style="text;html=1;align=center;verticalAlign=middle;whiteSpace=wrap;rounded=0;" vertex="1" parent="1">
          <mxGeometry x="933.5" y="846" width="110" height="59" as="geometry" />
        </mxCell>
        <mxCell id="Rj85BnveKWgoiPIKLIqZ-10" value="" style="endArrow=classic;html=1;rounded=0;" edge="1" parent="1">
          <mxGeometry width="50" height="50" relative="1" as="geometry">
            <mxPoint x="823.5" y="875" as="sourcePoint" />
            <mxPoint x="923.5" y="875" as="targetPoint" />
          </mxGeometry>
        </mxCell>
        <mxCell id="Rj85BnveKWgoiPIKLIqZ-11" value="工作列表" style="swimlane;fontStyle=0;childLayout=stackLayout;horizontal=1;startSize=30;horizontalStack=0;resizeParent=1;resizeParentMax=0;resizeLast=0;collapsible=1;marginBottom=0;whiteSpace=wrap;html=1;" vertex="1" parent="1">
          <mxGeometry x="230" y="175" width="140" height="120" as="geometry" />
        </mxCell>
        <mxCell id="Rj85BnveKWgoiPIKLIqZ-12" value="Item 1" style="text;strokeColor=none;fillColor=none;align=left;verticalAlign=middle;spacingLeft=4;spacingRight=4;overflow=hidden;points=[[0,0.5],[1,0.5]];portConstraint=eastwest;rotatable=0;whiteSpace=wrap;html=1;" vertex="1" parent="Rj85BnveKWgoiPIKLIqZ-11">
          <mxGeometry y="30" width="140" height="30" as="geometry" />
        </mxCell>
        <mxCell id="Rj85BnveKWgoiPIKLIqZ-13" value="Item 2" style="text;strokeColor=none;fillColor=none;align=left;verticalAlign=middle;spacingLeft=4;spacingRight=4;overflow=hidden;points=[[0,0.5],[1,0.5]];portConstraint=eastwest;rotatable=0;whiteSpace=wrap;html=1;" vertex="1" parent="Rj85BnveKWgoiPIKLIqZ-11">
          <mxGeometry y="60" width="140" height="30" as="geometry" />
        </mxCell>
        <mxCell id="Rj85BnveKWgoiPIKLIqZ-14" value="Item 3" style="text;strokeColor=none;fillColor=none;align=left;verticalAlign=middle;spacingLeft=4;spacingRight=4;overflow=hidden;points=[[0,0.5],[1,0.5]];portConstraint=eastwest;rotatable=0;whiteSpace=wrap;html=1;" vertex="1" parent="Rj85BnveKWgoiPIKLIqZ-11">
          <mxGeometry y="90" width="140" height="30" as="geometry" />
        </mxCell>
        <mxCell id="Rj85BnveKWgoiPIKLIqZ-15" value="List Item" style="text;strokeColor=none;fillColor=none;align=left;verticalAlign=middle;spacingLeft=4;spacingRight=4;overflow=hidden;points=[[0,0.5],[1,0.5]];portConstraint=eastwest;rotatable=0;whiteSpace=wrap;html=1;" vertex="1" parent="1">
          <mxGeometry x="310" y="355" width="80" height="30" as="geometry" />
        </mxCell>
        <mxCell id="Rj85BnveKWgoiPIKLIqZ-17" value="获取任务" style="rounded=1;whiteSpace=wrap;html=1;" vertex="1" parent="1">
          <mxGeometry x="240" y="445" width="120" height="60" as="geometry" />
        </mxCell>
        <mxCell id="Rj85BnveKWgoiPIKLIqZ-18" value="" style="endArrow=classic;html=1;rounded=0;entryX=0;entryY=0.5;entryDx=0;entryDy=0;" edge="1" parent="1" target="Rj85BnveKWgoiPIKLIqZ-17">
          <mxGeometry width="50" height="50" relative="1" as="geometry">
            <mxPoint x="170" y="475" as="sourcePoint" />
            <mxPoint x="250" y="455" as="targetPoint" />
          </mxGeometry>
        </mxCell>
        <mxCell id="Rj85BnveKWgoiPIKLIqZ-19" value="" style="shape=flexArrow;endArrow=classic;html=1;rounded=0;" edge="1" parent="1">
          <mxGeometry width="50" height="50" relative="1" as="geometry">
            <mxPoint x="299.5" y="315" as="sourcePoint" />
            <mxPoint x="299.5" y="435" as="targetPoint" />
          </mxGeometry>
        </mxCell>
        <mxCell id="Rj85BnveKWgoiPIKLIqZ-20" value="搜索" style="rounded=1;whiteSpace=wrap;html=1;" vertex="1" parent="1">
          <mxGeometry x="470" y="445" width="120" height="60" as="geometry" />
        </mxCell>
        <mxCell id="Rj85BnveKWgoiPIKLIqZ-21" value="" style="endArrow=classic;html=1;rounded=0;exitX=1;exitY=0.5;exitDx=0;exitDy=0;entryX=0;entryY=0.5;entryDx=0;entryDy=0;" edge="1" parent="1" source="Rj85BnveKWgoiPIKLIqZ-17" target="Rj85BnveKWgoiPIKLIqZ-20">
          <mxGeometry width="50" height="50" relative="1" as="geometry">
            <mxPoint x="460" y="445" as="sourcePoint" />
            <mxPoint x="510" y="395" as="targetPoint" />
          </mxGeometry>
        </mxCell>
        <mxCell id="Rj85BnveKWgoiPIKLIqZ-23" value="相似度搜索，快速了解文档结构与目标语句位置" style="text;html=1;align=center;verticalAlign=middle;whiteSpace=wrap;rounded=0;" vertex="1" parent="1">
          <mxGeometry x="460.69" y="405" width="140" height="30" as="geometry" />
        </mxCell>
        <mxCell id="Rj85BnveKWgoiPIKLIqZ-24" value="" style="endArrow=classic;html=1;rounded=0;exitX=1;exitY=0.5;exitDx=0;exitDy=0;entryX=0;entryY=0.5;entryDx=0;entryDy=0;" edge="1" parent="1" source="Rj85BnveKWgoiPIKLIqZ-20" target="Rj85BnveKWgoiPIKLIqZ-25">
          <mxGeometry width="50" height="50" relative="1" as="geometry">
            <mxPoint x="620" y="485" as="sourcePoint" />
            <mxPoint x="670" y="435" as="targetPoint" />
          </mxGeometry>
        </mxCell>
        <mxCell id="Rj85BnveKWgoiPIKLIqZ-25" value="定位" style="rounded=1;whiteSpace=wrap;html=1;" vertex="1" parent="1">
          <mxGeometry x="700" y="445" width="120" height="60" as="geometry" />
        </mxCell>
        <mxCell id="Rj85BnveKWgoiPIKLIqZ-26" value="按行号读取文档对应内容片段，精确到行" style="text;html=1;align=center;verticalAlign=middle;whiteSpace=wrap;rounded=0;" vertex="1" parent="1">
          <mxGeometry x="690" y="405" width="140" height="30" as="geometry" />
        </mxCell>
        <mxCell id="Rj85BnveKWgoiPIKLIqZ-27" value="提交结果" style="rounded=1;whiteSpace=wrap;html=1;" vertex="1" parent="1">
          <mxGeometry x="930" y="445" width="120" height="60" as="geometry" />
        </mxCell>
        <mxCell id="Rj85BnveKWgoiPIKLIqZ-29" value="" style="endArrow=classic;html=1;rounded=0;exitX=1;exitY=0.5;exitDx=0;exitDy=0;entryX=0;entryY=0.5;entryDx=0;entryDy=0;" edge="1" parent="1" source="Rj85BnveKWgoiPIKLIqZ-25" target="Rj85BnveKWgoiPIKLIqZ-27">
          <mxGeometry width="50" height="50" relative="1" as="geometry">
            <mxPoint x="950" y="665" as="sourcePoint" />
            <mxPoint x="1000" y="615" as="targetPoint" />
          </mxGeometry>
        </mxCell>
        <mxCell id="Rj85BnveKWgoiPIKLIqZ-31" value="将找到的证据与形成的结论写入报告" style="text;html=1;align=center;verticalAlign=middle;whiteSpace=wrap;rounded=0;" vertex="1" parent="1">
          <mxGeometry x="920" y="405" width="140" height="30" as="geometry" />
        </mxCell>
        <mxCell id="Rj85BnveKWgoiPIKLIqZ-32" value="" style="endArrow=classic;html=1;rounded=0;exitX=0.5;exitY=1;exitDx=0;exitDy=0;entryX=0.5;entryY=1;entryDx=0;entryDy=0;edgeStyle=elbowEdgeStyle;" edge="1" parent="1" source="Rj85BnveKWgoiPIKLIqZ-27" target="Rj85BnveKWgoiPIKLIqZ-17">
          <mxGeometry width="50" height="50" relative="1" as="geometry">
            <mxPoint x="950" y="625" as="sourcePoint" />
            <mxPoint x="1000" y="575" as="targetPoint" />
            <Array as="points">
              <mxPoint x="645" y="575" />
            </Array>
          </mxGeometry>
        </mxCell>
        <mxCell id="Rj85BnveKWgoiPIKLIqZ-33" value="" style="endArrow=none;dashed=1;html=1;dashPattern=1 3;strokeWidth=2;rounded=0;exitX=0.5;exitY=1;exitDx=0;exitDy=0;" edge="1" parent="1" source="Rj85BnveKWgoiPIKLIqZ-20">
          <mxGeometry width="50" height="50" relative="1" as="geometry">
            <mxPoint x="720" y="755" as="sourcePoint" />
            <mxPoint x="760" y="715" as="targetPoint" />
          </mxGeometry>
        </mxCell>
        <mxCell id="Rj85BnveKWgoiPIKLIqZ-35" value="" style="endArrow=none;dashed=1;html=1;dashPattern=1 3;strokeWidth=2;rounded=0;exitX=0.5;exitY=1;exitDx=0;exitDy=0;" edge="1" parent="1">
          <mxGeometry width="50" height="50" relative="1" as="geometry">
            <mxPoint x="760" y="505" as="sourcePoint" />
            <mxPoint x="530" y="715" as="targetPoint" />
          </mxGeometry>
        </mxCell>
        <mxCell id="Rj85BnveKWgoiPIKLIqZ-71" value="会话创建" style="rounded=1;whiteSpace=wrap;html=1;" vertex="1" parent="1">
          <mxGeometry x="1400" y="220" width="120" height="60" as="geometry" />
        </mxCell>
        <mxCell id="Rj85BnveKWgoiPIKLIqZ-72" value="评估中" style="rounded=1;whiteSpace=wrap;html=1;" vertex="1" parent="1">
          <mxGeometry x="1400" y="470" width="120" height="60" as="geometry" />
        </mxCell>
        <mxCell id="Rj85BnveKWgoiPIKLIqZ-73" value="提交会话" style="rounded=1;whiteSpace=wrap;html=1;" vertex="1" parent="1">
          <mxGeometry x="1400" y="780" width="120" height="60" as="geometry" />
        </mxCell>
        <mxCell id="Rj85BnveKWgoiPIKLIqZ-74" value="" style="endArrow=classic;html=1;rounded=0;exitX=0.5;exitY=1;exitDx=0;exitDy=0;entryX=0.5;entryY=0;entryDx=0;entryDy=0;" edge="1" parent="1" source="Rj85BnveKWgoiPIKLIqZ-71" target="Rj85BnveKWgoiPIKLIqZ-72">
          <mxGeometry width="50" height="50" relative="1" as="geometry">
            <mxPoint x="1590" y="390" as="sourcePoint" />
            <mxPoint x="1640" y="340" as="targetPoint" />
          </mxGeometry>
        </mxCell>
        <mxCell id="Rj85BnveKWgoiPIKLIqZ-75" value="" style="endArrow=classic;html=1;rounded=0;exitX=0.5;exitY=1;exitDx=0;exitDy=0;" edge="1" parent="1" source="Rj85BnveKWgoiPIKLIqZ-72" target="Rj85BnveKWgoiPIKLIqZ-73">
          <mxGeometry width="50" height="50" relative="1" as="geometry">
            <mxPoint x="1680" y="530" as="sourcePoint" />
            <mxPoint x="1730" y="480" as="targetPoint" />
          </mxGeometry>
        </mxCell>
        <mxCell id="Rj85BnveKWgoiPIKLIqZ-77" value="检查清单" style="swimlane;fontStyle=0;childLayout=stackLayout;horizontal=1;startSize=30;horizontalStack=0;resizeParent=1;resizeParentMax=0;resizeLast=0;collapsible=1;marginBottom=0;whiteSpace=wrap;html=1;" vertex="1" parent="1">
          <mxGeometry x="1600" y="765" width="180" height="90" as="geometry" />
        </mxCell>
        <mxCell id="Rj85BnveKWgoiPIKLIqZ-78" value="是否所有控制项都有结论？" style="text;strokeColor=none;fillColor=none;align=left;verticalAlign=middle;spacingLeft=4;spacingRight=4;overflow=hidden;points=[[0,0.5],[1,0.5]];portConstraint=eastwest;rotatable=0;whiteSpace=wrap;html=1;" vertex="1" parent="Rj85BnveKWgoiPIKLIqZ-77">
          <mxGeometry y="30" width="180" height="30" as="geometry" />
        </mxCell>
        <mxCell id="Rj85BnveKWgoiPIKLIqZ-79" value="是否所有结论为&quot;符合&quot;的控制项都有证据？" style="text;strokeColor=none;fillColor=none;align=left;verticalAlign=middle;spacingLeft=4;spacingRight=4;overflow=hidden;points=[[0,0.5],[1,0.5]];portConstraint=eastwest;rotatable=0;whiteSpace=wrap;html=1;" vertex="1" parent="Rj85BnveKWgoiPIKLIqZ-77">
          <mxGeometry y="60" width="180" height="30" as="geometry" />
        </mxCell>
        <mxCell id="Rj85BnveKWgoiPIKLIqZ-82" value="搜索证据" style="rounded=1;whiteSpace=wrap;html=1;" vertex="1" parent="1">
          <mxGeometry x="1630" y="270" width="120" height="60" as="geometry" />
        </mxCell>
        <mxCell id="Rj85BnveKWgoiPIKLIqZ-83" value="定位证据" style="rounded=1;whiteSpace=wrap;html=1;" vertex="1" parent="1">
          <mxGeometry x="1630" y="395" width="120" height="60" as="geometry" />
        </mxCell>
        <mxCell id="Rj85BnveKWgoiPIKLIqZ-84" value="提交证据" style="rounded=1;whiteSpace=wrap;html=1;" vertex="1" parent="1">
          <mxGeometry x="1630" y="525" width="120" height="60" as="geometry" />
        </mxCell>
        <mxCell id="Rj85BnveKWgoiPIKLIqZ-85" value="提交结论" style="rounded=1;whiteSpace=wrap;html=1;" vertex="1" parent="1">
          <mxGeometry x="1630" y="655" width="120" height="60" as="geometry" />
        </mxCell>
        <mxCell id="Rj85BnveKWgoiPIKLIqZ-88" value="" style="endArrow=classic;startArrow=classic;html=1;rounded=0;exitX=1;exitY=0.5;exitDx=0;exitDy=0;entryX=0;entryY=0.5;entryDx=0;entryDy=0;" edge="1" parent="1" source="Rj85BnveKWgoiPIKLIqZ-72" target="Rj85BnveKWgoiPIKLIqZ-82">
          <mxGeometry width="50" height="50" relative="1" as="geometry">
            <mxPoint x="1790" y="530" as="sourcePoint" />
            <mxPoint x="1840" y="480" as="targetPoint" />
          </mxGeometry>
        </mxCell>
        <mxCell id="Rj85BnveKWgoiPIKLIqZ-89" value="" style="endArrow=classic;startArrow=classic;html=1;rounded=0;exitX=1;exitY=0.5;exitDx=0;exitDy=0;entryX=0;entryY=0.5;entryDx=0;entryDy=0;" edge="1" parent="1" source="Rj85BnveKWgoiPIKLIqZ-72" target="Rj85BnveKWgoiPIKLIqZ-83">
          <mxGeometry width="50" height="50" relative="1" as="geometry">
            <mxPoint x="1850" y="580" as="sourcePoint" />
            <mxPoint x="1900" y="530" as="targetPoint" />
          </mxGeometry>
        </mxCell>
        <mxCell id="Rj85BnveKWgoiPIKLIqZ-90" value="" style="endArrow=classic;startArrow=classic;html=1;rounded=0;exitX=1;exitY=0.5;exitDx=0;exitDy=0;entryX=0;entryY=0.5;entryDx=0;entryDy=0;" edge="1" parent="1" source="Rj85BnveKWgoiPIKLIqZ-72" target="Rj85BnveKWgoiPIKLIqZ-84">
          <mxGeometry width="50" height="50" relative="1" as="geometry">
            <mxPoint x="1730" y="640" as="sourcePoint" />
            <mxPoint x="1780" y="590" as="targetPoint" />
          </mxGeometry>
        </mxCell>
        <mxCell id="Rj85BnveKWgoiPIKLIqZ-91" value="" style="endArrow=classic;startArrow=classic;html=1;rounded=0;exitX=1;exitY=0.5;exitDx=0;exitDy=0;entryX=0;entryY=0.5;entryDx=0;entryDy=0;" edge="1" parent="1" source="Rj85BnveKWgoiPIKLIqZ-72" target="Rj85BnveKWgoiPIKLIqZ-85">
          <mxGeometry width="50" height="50" relative="1" as="geometry">
            <mxPoint x="1780" y="640" as="sourcePoint" />
            <mxPoint x="1830" y="590" as="targetPoint" />
          </mxGeometry>
        </mxCell>
        <mxCell id="Rj85BnveKWgoiPIKLIqZ-92" value="检查清单" style="swimlane;fontStyle=0;childLayout=stackLayout;horizontal=1;startSize=30;horizontalStack=0;resizeParent=1;resizeParentMax=0;resizeLast=0;collapsible=1;marginBottom=0;whiteSpace=wrap;html=1;" vertex="1" parent="1">
          <mxGeometry x="1840" y="650" width="180" height="90" as="geometry" />
        </mxCell>
        <mxCell id="Rj85BnveKWgoiPIKLIqZ-93" value="结论为&quot;符合&quot;的控制项都有证据？" style="text;strokeColor=none;fillColor=none;align=left;verticalAlign=middle;spacingLeft=4;spacingRight=4;overflow=hidden;points=[[0,0.5],[1,0.5]];portConstraint=eastwest;rotatable=0;whiteSpace=wrap;html=1;" vertex="1" parent="Rj85BnveKWgoiPIKLIqZ-92">
          <mxGeometry y="30" width="180" height="30" as="geometry" />
        </mxCell>
        <mxCell id="Rj85BnveKWgoiPIKLIqZ-98" value="证据是否真正映证了结论？" style="text;strokeColor=none;fillColor=none;align=left;verticalAlign=middle;spacingLeft=4;spacingRight=4;overflow=hidden;points=[[0,0.5],[1,0.5]];portConstraint=eastwest;rotatable=0;whiteSpace=wrap;html=1;" vertex="1" parent="Rj85BnveKWgoiPIKLIqZ-92">
          <mxGeometry y="60" width="180" height="30" as="geometry" />
        </mxCell>
        <mxCell id="Rj85BnveKWgoiPIKLIqZ-95" value="检查清单" style="swimlane;fontStyle=0;childLayout=stackLayout;horizontal=1;startSize=30;horizontalStack=0;resizeParent=1;resizeParentMax=0;resizeLast=0;collapsible=1;marginBottom=0;whiteSpace=wrap;html=1;" vertex="1" parent="1">
          <mxGeometry x="1840" y="525" width="180" height="60" as="geometry" />
        </mxCell>
        <mxCell id="Rj85BnveKWgoiPIKLIqZ-96" value="提交证据前是否进行过定位？" style="text;strokeColor=none;fillColor=none;align=left;verticalAlign=middle;spacingLeft=4;spacingRight=4;overflow=hidden;points=[[0,0.5],[1,0.5]];portConstraint=eastwest;rotatable=0;whiteSpace=wrap;html=1;" vertex="1" parent="Rj85BnveKWgoiPIKLIqZ-95">
          <mxGeometry y="30" width="180" height="30" as="geometry" />
        </mxCell>
        <mxCell id="Rj85BnveKWgoiPIKLIqZ-99" value="会话结束" style="rounded=1;whiteSpace=wrap;html=1;" vertex="1" parent="1">
          <mxGeometry x="1400" y="908.85" width="120" height="60" as="geometry" />
        </mxCell>
        <mxCell id="Rj85BnveKWgoiPIKLIqZ-100" value="" style="endArrow=classic;html=1;rounded=0;exitX=0.5;exitY=1;exitDx=0;exitDy=0;entryX=0.5;entryY=0;entryDx=0;entryDy=0;" edge="1" parent="1" source="Rj85BnveKWgoiPIKLIqZ-73" target="Rj85BnveKWgoiPIKLIqZ-99">
          <mxGeometry width="50" height="50" relative="1" as="geometry">
            <mxPoint x="1680" y="950" as="sourcePoint" />
            <mxPoint x="1730" y="900" as="targetPoint" />
          </mxGeometry>
        </mxCell>
        <mxCell id="Rj85BnveKWgoiPIKLIqZ-101" value="其他数据源" style="shape=cylinder3;whiteSpace=wrap;html=1;boundedLbl=1;backgroundOutline=1;size=15;" vertex="1" parent="1">
          <mxGeometry x="1270" y="460" width="70" height="80" as="geometry" />
        </mxCell>
        <mxCell id="Rj85BnveKWgoiPIKLIqZ-102" value="" style="endArrow=none;dashed=1;html=1;dashPattern=1 3;strokeWidth=2;rounded=0;exitX=1;exitY=0.5;exitDx=0;exitDy=0;exitPerimeter=0;entryX=0;entryY=0.5;entryDx=0;entryDy=0;" edge="1" parent="1" source="Rj85BnveKWgoiPIKLIqZ-101" target="Rj85BnveKWgoiPIKLIqZ-72">
          <mxGeometry width="50" height="50" relative="1" as="geometry">
            <mxPoint x="1230" y="420" as="sourcePoint" />
            <mxPoint x="1280" y="370" as="targetPoint" />
          </mxGeometry>
        </mxCell>
        <mxCell id="Rj85BnveKWgoiPIKLIqZ-103" value="读取接口" style="rounded=0;whiteSpace=wrap;html=1;" vertex="1" parent="1">
          <mxGeometry x="474" y="705" width="120" height="60" as="geometry" />
        </mxCell>
        <mxCell id="Rj85BnveKWgoiPIKLIqZ-104" value="搜索接口" style="rounded=0;whiteSpace=wrap;html=1;" vertex="1" parent="1">
          <mxGeometry x="690" y="705" width="120" height="60" as="geometry" />
        </mxCell>
      </root>
    </mxGraphModel>
  </diagram>
</mxfile>
